<?xml version="1.0" encoding="UTF-8"?>
<svg version="1.1" viewBox="0 0 2048 2048" width="1280" height="1280" xmlns="http://www.w3.org/2000/svg">
<path transform="translate(206)" d="m0 0h37v2l9 2 16 8 10 8 9 9 9 14 5 12 3 13 1 40v431l-1 36h96l-1-2v-444l2-12 6-10 8-7 9-4 40-1h463l23 1 11 4 9 8 5 10 1 4v453h95v-447l2-11 5-9 9-8 9-4 36-1h466l24 1 11 4 9 8 5 10 1 4v453h95v-500l2-14 4-12 8-15 11-13 10-8 12-7 16-6h37v2l9 2 14 7 12 9 8 8 10 15 5 13 3 14v1952l-4 10-6 8-5 4-9 4h-115v-2l-6-2-10-9-4-8-2-10v-66l-124 1-1314-1v33l-1 40-6 12-9 8-8 4h-114l-10-6-5-5-5-6-3-10-1-1109v-831l2-19 5-15 8-14 8-10 11-9 10-6 11-5zm1615 64-8 4-4 6-1 9v1900h31v-1907l-4-7-5-4zm-1599 0-7 3-5 6-1 2v1908l27 1 3-1v-1908l-4-6-5-4zm436 96-1 1-1 9v22h63v-31zm-193 1-1 252v162l445 1 2-1v-414h-126l-1 14-1 56-4 10-4 6-9 6-7 2-8 1h-129l-10-2-8-5-3-1-2-4-4-6-2-6-1-10-1-61zm672 0-1 16v398l4 1h440l3-1v-414h-126l-1 14-1 56-4 10-4 6-9 6-7 2-8 1h-129l-10-2-8-5-5-5-5-8-2-12-1-63zm193-1-2 2v30h63v-31zm-1025 480-1 16v15h1439v-31zm0 96-1 59v387l1 1h94l1-354 2-9 6-10 7-6 10-4h1196l9 3 9 6 6 9 2 6 1 358 1 1h94v-447zm833 127-2 2-1 69-4 10-5 7-8 5-7 2-11 1h-157l-11-2-8-5h-2l-2-4-4-5-3-8-1-10-1-61h-447v319h1119v-319zm-162 1v30l1 1h94v-31zm-671 383-1 19v12l1439 1v-31l-16-1zm0 96-1 64v383l1 1h94l1-286 2-12 4-8 4-5 10-6 7-2h584l9 2 10 6 6 8 3 8 1 15v279l1 1h94l1-386 2-9 6-10 9-7 8-3 36-1h58l366 1 9 3 9 6 6 9 2 6 1 39v351l1 1h94v-448zm895 97v351h383v-351h-95v25l-1 46-4 9-4 6-5 4-9 4-7 1h-134l-8-2-6-3-7-6-6-12-1-10-1-62zm162-1-2 1v31h63v-31zm-897 97-1 59v195l1 1h510l1-3-1-252h-158l-1 24-1 47-7 14-6 5-9 4-8 1h-133l-9-2-9-6-6-8-3-7-1-11-1-61zm223 0v31h63v-31zm-383 319-1 19v12l1439 1v-31l-16-1z"/>
<path transform="translate(1762,2047)" d="m0 0 2 1z"/>
<path transform="translate(1803)" d="m0 0"/>
<path transform="translate(203)" d="m0 0"/>
</svg>
